<svg xmlns="http://www.w3.org/2000/svg" viewBox="0 0 512 512" style="height: 512px; width: 512px;"><defs><linearGradient x1="0" x2="1" y1="0" y2="1" id="skoll-shield-disabled-gradient-2"><stop offset="0%" stop-color="#a3bbd8" stop-opacity="1"></stop><stop offset="100%" stop-color="#5e82af" stop-opacity="1"></stop></linearGradient><linearGradient x1="0" x2="1" y1="0" y2="1" id="skoll-shield-disabled-gradient-4"><stop offset="0%" stop-color="#a3bbd8" stop-opacity="0.06"></stop><stop offset="100%" stop-color="#3d4044" stop-opacity="0"></stop></linearGradient><linearGradient x1="0" x2="1" y1="0" y2="1" id="skoll-shield-disabled-gradient-5"><stop offset="0%" stop-color="#a3bbd8" stop-opacity="0.01"></stop><stop offset="100%" stop-color="#5e82af" stop-opacity="0"></stop></linearGradient><linearGradient x1="0" x2="1" y1="0" y2="1" id="skoll-shield-disabled-gradient-6"><stop offset="0%" stop-color="#a3bbd8" stop-opacity="0"></stop><stop offset="100%" stop-color="#5e82af" stop-opacity="0"></stop></linearGradient></defs><g class="" transform="translate(-13,-10)" style=""><path d="M486 68.125 68.125 486 26 443.875 443.875 26zM256 21.608S185.506 66.896 81.857 66.896V292.55a148.335 148.335 0 0 0 11.67 57.573L380.845 62.806C311.185 51.67 256 21.608 256 21.608zm0 468.784s174.143-65.928 174.143-197.84V150.206L152.618 427.732C200.838 469.51 256 490.392 256 490.392z" fill="#ffffff" fill-opacity="1"></path></g></svg>